<svg width="42" height="18" viewBox="0 0 42 18" fill="none" xmlns="http://www.w3.org/2000/svg">
<path d="M33 0H9C4.02944 0 0 4.02944 0 9C0 13.9706 4.02944 18 9 18H33C37.9706 18 42 13.9706 42 9C42 4.02944 37.9706 0 33 0Z" fill="white"/>
<path d="M33 17C37.4183 17 41 13.4183 41 9C41 4.58172 37.4183 1 33 1C28.5817 1 25 4.58172 25 9C25 13.4183 28.5817 17 33 17Z" fill="black"/>
<path d="M33 17C37.4183 17 41 13.4183 41 9C41 4.58172 37.4183 1 33 1C28.5817 1 25 4.58172 25 9C25 13.4183 28.5817 17 33 17Z" fill="#D8D8D8"/>
<path d="M33 16.0588C36.9274 16.0588 40.1111 12.8985 40.1111 8.99999C40.1111 5.10151 36.9274 1.94116 33 1.94116C29.0726 1.94116 25.8889 5.10151 25.8889 8.99999C25.8889 12.8985 29.0726 16.0588 33 16.0588Z" fill="white"/>
<path d="M33 16.0588C36.9274 16.0588 40.1111 12.8985 40.1111 8.99999C40.1111 5.10151 36.9274 1.94116 33 1.94116C29.0726 1.94116 25.8889 5.10151 25.8889 8.99999C25.8889 12.8985 29.0726 16.0588 33 16.0588Z" fill="white"/>
<path d="M33 14.1765C35.9455 14.1765 38.3333 11.8589 38.3333 9.00002C38.3333 6.14113 35.9455 3.82355 33 3.82355C30.0545 3.82355 27.6667 6.14113 27.6667 9.00002C27.6667 11.8589 30.0545 14.1765 33 14.1765Z" fill="white"/>
<path d="M33 14.1765C35.9455 14.1765 38.3333 11.8589 38.3333 9.00002C38.3333 6.14113 35.9455 3.82355 33 3.82355C30.0545 3.82355 27.6667 6.14113 27.6667 9.00002C27.6667 11.8589 30.0545 14.1765 33 14.1765Z" fill="#C02D1A"/>
<path d="M33 14.1765C35.9455 14.1765 38.3333 11.8589 38.3333 9.00002C38.3333 6.14113 35.9455 3.82355 33 3.82355C30.0545 3.82355 27.6667 6.14113 27.6667 9.00002C27.6667 11.8589 30.0545 14.1765 33 14.1765Z" fill="#C02D1A"/>
<path d="M33 14.1765C35.9455 14.1765 38.3333 11.8589 38.3333 9.00002C38.3333 6.14113 35.9455 3.82355 33 3.82355C30.0545 3.82355 27.6667 6.14113 27.6667 9.00002C27.6667 11.8589 30.0545 14.1765 33 14.1765Z" fill="#C02D1A"/>
<path d="M33 14.1765C35.9455 14.1765 38.3333 11.8589 38.3333 9.00002C38.3333 6.14113 35.9455 3.82355 33 3.82355C30.0545 3.82355 27.6667 6.14113 27.6667 9.00002C27.6667 11.8589 30.0545 14.1765 33 14.1765Z" fill="#C02D1A"/>
<path d="M33 12.2941C34.9637 12.2941 36.5556 10.8193 36.5556 8.99999C36.5556 7.1807 34.9637 5.70587 33 5.70587C31.0363 5.70587 29.4444 7.1807 29.4444 8.99999C29.4444 10.8193 31.0363 12.2941 33 12.2941Z" fill="white"/>
<path d="M33 12.2941C34.9637 12.2941 36.5556 10.8193 36.5556 8.99999C36.5556 7.1807 34.9637 5.70587 33 5.70587C31.0363 5.70587 29.4444 7.1807 29.4444 8.99999C29.4444 10.8193 31.0363 12.2941 33 12.2941Z" fill="#C02D1A"/>
<path d="M33 12.2941C34.9637 12.2941 36.5556 10.8193 36.5556 8.99999C36.5556 7.1807 34.9637 5.70587 33 5.70587C31.0363 5.70587 29.4444 7.1807 29.4444 8.99999C29.4444 10.8193 31.0363 12.2941 33 12.2941Z" fill="#C02D1A"/>
<path d="M33 12.2941C34.9637 12.2941 36.5556 10.8193 36.5556 8.99999C36.5556 7.1807 34.9637 5.70587 33 5.70587C31.0363 5.70587 29.4444 7.1807 29.4444 8.99999C29.4444 10.8193 31.0363 12.2941 33 12.2941Z" fill="#C02D1A"/>
<path d="M33 12.2941C34.9637 12.2941 36.5556 10.8193 36.5556 8.99999C36.5556 7.1807 34.9637 5.70587 33 5.70587C31.0363 5.70587 29.4444 7.1807 29.4444 8.99999C29.4444 10.8193 31.0363 12.2941 33 12.2941Z" fill="#C02D1A"/>
<path d="M33 12.2941C34.9637 12.2941 36.5556 10.8193 36.5556 8.99999C36.5556 7.1807 34.9637 5.70587 33 5.70587C31.0363 5.70587 29.4444 7.1807 29.4444 8.99999C29.4444 10.8193 31.0363 12.2941 33 12.2941Z" fill="#B7B7B7"/>
</svg>
