<svg width="42" height="18" viewBox="0 0 42 18" fill="none" xmlns="http://www.w3.org/2000/svg">
<path d="M33 0H9C4.02944 0 0 4.02944 0 9C0 13.9706 4.02944 18 9 18H33C37.9706 18 42 13.9706 42 9C42 4.02944 37.9706 0 33 0Z" fill="white"/>
<path d="M9 17C13.4183 17 17 13.4183 17 9C17 4.58172 13.4183 1 9 1C4.58172 1 1 4.58172 1 9C1 13.4183 4.58172 17 9 17Z" fill="black"/>
<path d="M9 17C13.4183 17 17 13.4183 17 9C17 4.58172 13.4183 1 9 1C4.58172 1 1 4.58172 1 9C1 13.4183 4.58172 17 9 17Z" fill="#D8D8D8"/>
<path d="M9 16.0588C12.9274 16.0588 16.1111 12.8985 16.1111 8.99999C16.1111 5.10151 12.9274 1.94116 9 1.94116C5.07264 1.94116 1.88889 5.10151 1.88889 8.99999C1.88889 12.8985 5.07264 16.0588 9 16.0588Z" fill="white"/>
<path d="M9 16.0588C12.9274 16.0588 16.1111 12.8985 16.1111 8.99999C16.1111 5.10151 12.9274 1.94116 9 1.94116C5.07264 1.94116 1.88889 5.10151 1.88889 8.99999C1.88889 12.8985 5.07264 16.0588 9 16.0588Z" fill="white"/>
<path d="M9 14.1765C11.9455 14.1765 14.3333 11.8589 14.3333 9.00002C14.3333 6.14113 11.9455 3.82355 9 3.82355C6.05449 3.82355 3.66667 6.14113 3.66667 9.00002C3.66667 11.8589 6.05449 14.1765 9 14.1765Z" fill="white"/>
<path d="M9 14.1765C11.9455 14.1765 14.3333 11.8589 14.3333 9.00002C14.3333 6.14113 11.9455 3.82355 9 3.82355C6.05449 3.82355 3.66667 6.14113 3.66667 9.00002C3.66667 11.8589 6.05449 14.1765 9 14.1765Z" fill="#C02D1A"/>
<path d="M9 14.1765C11.9455 14.1765 14.3333 11.8589 14.3333 9.00002C14.3333 6.14113 11.9455 3.82355 9 3.82355C6.05449 3.82355 3.66667 6.14113 3.66667 9.00002C3.66667 11.8589 6.05449 14.1765 9 14.1765Z" fill="#C02D1A"/>
<path d="M9 14.1765C11.9455 14.1765 14.3333 11.8589 14.3333 9.00002C14.3333 6.14113 11.9455 3.82355 9 3.82355C6.05449 3.82355 3.66667 6.14113 3.66667 9.00002C3.66667 11.8589 6.05449 14.1765 9 14.1765Z" fill="#C02D1A"/>
<path d="M9 14.1765C11.9455 14.1765 14.3333 11.8589 14.3333 9.00002C14.3333 6.14113 11.9455 3.82355 9 3.82355C6.05449 3.82355 3.66667 6.14113 3.66667 9.00002C3.66667 11.8589 6.05449 14.1765 9 14.1765Z" fill="#C02D1A"/>
<path d="M9 12.2941C10.9637 12.2941 12.5556 10.8193 12.5556 8.99999C12.5556 7.1807 10.9637 5.70587 9 5.70587C7.03632 5.70587 5.44444 7.1807 5.44444 8.99999C5.44444 10.8193 7.03632 12.2941 9 12.2941Z" fill="white"/>
<path d="M9 12.2941C10.9637 12.2941 12.5556 10.8193 12.5556 8.99999C12.5556 7.1807 10.9637 5.70587 9 5.70587C7.03632 5.70587 5.44444 7.1807 5.44444 8.99999C5.44444 10.8193 7.03632 12.2941 9 12.2941Z" fill="#C02D1A"/>
<path d="M9 12.2941C10.9637 12.2941 12.5556 10.8193 12.5556 8.99999C12.5556 7.1807 10.9637 5.70587 9 5.70587C7.03632 5.70587 5.44444 7.1807 5.44444 8.99999C5.44444 10.8193 7.03632 12.2941 9 12.2941Z" fill="#C02D1A"/>
<path d="M9 12.2941C10.9637 12.2941 12.5556 10.8193 12.5556 8.99999C12.5556 7.1807 10.9637 5.70587 9 5.70587C7.03632 5.70587 5.44444 7.1807 5.44444 8.99999C5.44444 10.8193 7.03632 12.2941 9 12.2941Z" fill="#C02D1A"/>
<path d="M9 12.2941C10.9637 12.2941 12.5556 10.8193 12.5556 8.99999C12.5556 7.1807 10.9637 5.70587 9 5.70587C7.03632 5.70587 5.44444 7.1807 5.44444 8.99999C5.44444 10.8193 7.03632 12.2941 9 12.2941Z" fill="#C02D1A"/>
<path d="M9 12.2941C10.9637 12.2941 12.5556 10.8193 12.5556 8.99999C12.5556 7.1807 10.9637 5.70587 9 5.70587C7.03632 5.70587 5.44444 7.1807 5.44444 8.99999C5.44444 10.8193 7.03632 12.2941 9 12.2941Z" fill="#B7B7B7"/>
</svg>
